<?xml version="1.0" encoding="UTF-8"?>
<svg xmlns="http://www.w3.org/2000/svg" xmlns:xlink="http://www.w3.org/1999/xlink" version="1.1" viewBox="0 0 1024 1024">
  <!-- Generator: Adobe Illustrator 29.1.0, SVG Export Plug-In . SVG Version: 2.1.0 Build 142)  -->
  <defs>
    <style>
      .st0 {
        fill: none;
      }

      .st1 {
        fill: white;
      }

      .st2, .st3, .st4 {
        isolation: isolate;
      }

      .st5 {
        mix-blend-mode: multiply;
      }

      .st3 {
        fill: white;
      }

      .st3, .st4 {
        mix-blend-mode: screen;
      }

      .st4 {
        fill: white;
      }

      .st6 {
        clip-path: url(#clippath);
      }
    </style>
    <clipPath id="clippath">
      <path class="st0" d="M988.9,354c0-9.5-.6-19.1-1.9-28.5-1-9.3-2.7-18.5-5.1-27.4-2.3-9.6-5.4-19.1-9-28.2l-.5-1.1-5.3-12.5-.5-1.1c-6.3-12.7-13.7-25-22.1-36.4l-.4-.5-.2-.3c-5.5-7.5-11.5-14.6-17.9-21.4l-.5-.5-.3-.3c-29.2-30.1-64.8-49.9-105.8-58.8l-1.2-.3-20.6-3.1-22.6-.8h-1.1c-11.7.2-23.4,1.4-35,3.5h-.6c0,0-.5,0-.5,0h0c-40.2,8.1-79.4,28-113.5,57.8-32.4,27.5-62.4,61.5-89,101.1-.3.4-.6.9-.2,1.4.4.4,1,0,1.3-.3,11.9-9,28.2-7.3,38.1,4,7.8,9,13,21.4,16,38.1,3.5,20.8,3,43.3-1.6,70.9-4.6,26.4-11.8,51.9-24.1,85.3l-12.1,31c-8.2,18.8-16.1,38.2-23.4,57.5-8,20.4-14.1,41.9-18.1,63.8l-3.3,17.3-2.4-5.1c-9.2-21.3-19.9-42.4-31.8-62.7l-.8-1.4c-10.6-17.7-22.4-35.3-34.8-52.2l-.9-1.2-19.9-25.7-.9-1.2-25.3-28.8-1-1.1-44.7-47.5-1-1.1c-15.9-16.6-30.5-32.8-43.4-48.1-6.6-7.8-12.9-16.8-18.9-26.7-7.1-12.3-11.5-25.8-12.8-40.1-1.4-39.7,14.6-70.5,47.5-91.5,13.4-7.5,27.8-12,42.9-13.4h1.4c9.9-1,19.8-.9,29.4.4l1.7.2c8.6,1.1,17,3,24.9,5.6l21.1,8.4c29.5,15.1,56.4,39.1,79.8,71.2.2.3.5.4.7.4,0,0,.2,0,.4-.1l.2-.3c.2-.3.3-.7,0-1-18.4-28.4-39.5-55.3-62.7-79.9-9.5-10-19.6-19.7-30-28.7-.1-.1-.2-.2-.3-.3l-1.4-1.2c-8.8-7.5-18.2-14.7-27.9-21.3l-1.9-1.3c-23.3-15.1-47.9-25.7-71.1-30.7-23-5.4-46.9-6.7-70.9-4h-.2l-1.6.2c-21.3,2.6-42,8.6-61.6,17.9-23.6,11.1-44.9,26.3-63.3,45.4-17,17.5-31,37.7-41.7,60.2-4.1,8.3-7.7,17.1-10.6,26.2-12.7,37.3-15.2,80.3-6.8,120.9,5.2,25.3,12.9,48,23.4,69.4,10.6,21.5,23.3,42.4,37.6,62,17,23.3,35,46.2,53.7,68.2l59.1,70.5,40.1,47.9,15.6,18.5.9,1.1,47.9,56.4.9,1.1,17.9,20.7.9,1,46.3,53.1,22.5,24.7c8.9,10.1,18.3,20.2,27.9,29.8,1.2,1.2,2.5,2.3,3.9,3.4,4.5,3.9,9.5,7.5,14.7,10.5l.6.3.4.3c13.2,7.4,27.4,11.2,42.2,11.2s7.4-.2,11.2-.7h1.2c20.8-3,40.2-14,60.8-34.7,14.3-14.3,29.2-30.2,44.3-47.1,21.1-23.5,44.6-50.4,69.9-79.9,60.4-70.7,117.9-139.4,170.9-204,8.9-10.9,14.6-17.9,17-20.9l1.1-1.4c20.7-26.9,37.8-49.9,53.6-77.9v-.2h0l.8-1.4c8.8-16,16.3-32.9,22.1-50.2l.6-1.9c3.7-11.8,6.7-23.9,8.9-36.1v-.3l.2-1.2c2.2-14.1,3.1-28.4,2.8-42.7l-.4-.2ZM518.1,302h0ZM518.6,301.7h0Z"/>
    </clipPath>
    <linearGradient id="linear-gradient" x1="554.6" y1="268.4" x2="-262.2" y2="-1146.3" gradientTransform="translate(630.4 540.3) rotate(-180) scale(1 -1)" gradientUnits="userSpaceOnUse">
      <stop offset="0" stop-color="#8cb8f8"/>
      <stop offset=".3" stop-color="#bed8fb"/>
      <stop offset=".6" stop-color="#f1d2f5"/>
      <stop offset=".9" stop-color="#c4cdf6"/>
    </linearGradient>
    <linearGradient id="linear-gradient1" x1="11.1" y1="-164.9" x2="11.1" y2="663.9" gradientTransform="translate(630.4 540.3) rotate(-180) scale(1 -1)" gradientUnits="userSpaceOnUse">
      <stop offset="0" stop-color="#9f95f6"/>
      <stop offset="1" stop-color="#cccaf8"/>
    </linearGradient>
    <linearGradient id="linear-gradient2" x1="228.2" y1="-164.9" x2="228.2" y2="663.9" gradientTransform="translate(630.4 540.3) rotate(-180) scale(1 -1)" gradientUnits="userSpaceOnUse">
      <stop offset="0" stop-color="#b8c4fa"/>
      <stop offset="1" stop-color="#a79ff8"/>
    </linearGradient>
  </defs>
  <g class="st2">
    <g id="Layer_1">
      <g class="st6">
        <g>
          <path class="st1" d="M315.3,96.1L38.9-180.3c-116.1-116.1-304.3-116.1-420.4,0h0c-116.1,116.1-116.1,304.3,0,420.4L197.4,818.9c181.2,181.2,475,181.2,656.2,0L1432.4,240.1c116.1-116.1,116.1-304.3,0-420.4h0c-116.1-116.1-304.3-116.1-420.4,0L735.7,96.1c-116.1,116.1-304.3,116.1-420.4,0h0Z"/>
          <g class="st5">
            <path class="st4" d="M1134.3,351.5c116.1,116.1,116.1,304.3,0,420.4l-58.4,58.4c-236.5,236.5-619.9,236.5-856.4,0L17.2,627.9c116.1,116.1,304.3,116.1,420.3,0l276.4-276.4c116.1-116.1,304.3-116.1,420.4,0h0Z"/>
          </g>
          <g class="st5">
            <path class="st3" d="M917.2,351.5c116.1,116.1,116.1,304.3,0,420.4l-58.4,58.4c-236.5,236.5-619.9,236.5-856.4,0l-202.3-202.3c116.1,116.1,304.3,116.1,420.3,0l276.4-276.4c116.1-116.1,304.3-116.1,420.4,0h0Z"/>
          </g>
          <path class="st0" d="M518.5,301.7h0Z"/>
          <polygon class="st0" points="518.1 302 518.1 302 518.1 302 518.1 302"/>
        </g>
      </g>
    </g>
  </g>
</svg>